PathFileType	4	(X/Y/Z)	./resultDataOpenSim/trcMotMarkerGrf/sub10/qtm-02-01.trc
DataRate	CameraRate	NumFrames	NumMarkers	Units	OrigDataRate	OrigDataStartFrame	OrigNumFrames
250.000000	250.000000	10	24	m	250.000000	289	461
Frame#	Time	L.Toe.Tip			R.Toe.Tip			L.Ankle.Lat			R.Ankle.Lat			L.Ankle.Med			R.Ankle.Med			L.Heel			R.Heel			L.Knee.Lat			R.Knee.Lat			L.Knee.Med			R.Knee.Med			L.Thigh.Upper			R.Thigh.Upper			L.ASIS			R.ASIS			V.Sacral			L.Acromium			R.Acromium			C7			L.Elbow			R.Elbow			L.Wrist.Lat			R.Wrist.Lat
		X1	Y1	Z1	X2	Y2	Z2	X3	Y3	Z3	X4	Y4	Z4	X5	Y5	Z5	X6	Y6	Z6	X7	Y7	Z7	X8	Y8	Z8	X9	Y9	Z9	X10	Y10	Z10	X11	Y11	Z11	X12	Y12	Z12	X13	Y13	Z13	X14	Y14	Z14	X15	Y15	Z15	X16	Y16	Z16	X17	Y17	Z17	X18	Y18	Z18	X19	Y19	Z19	X20	Y20	Z20	X21	Y21	Z21	X22	Y22	Z22	X23	Y23	Z23	X24	Y24	Z24

289	1.152	0.10639399	0.01672587	-0.11612242	0.8943863	0.12117836	0.035548742	-0.010693044	0.08658401	-0.13200924	0.76300936	0.075222929	0.071678914	0.014815173	0.10349596	-0.051128989	0.76860372	0.11108151	-0.0097269257	-0.076850808	0.08320818	-0.084740256	0.73149637	0.030643642	0.023202847	0.17181262	0.42779824	-0.1754314	0.60162046	0.44677857	0.10170089	0.19409092	0.39596156	-0.056615256	0.60002314	0.44745823	-0.029086933	0.29429743	0.80168177	-0.2292047	0.43670817	0.81203958	0.13847313	0.38608581	0.89717592	-0.19146281	0.4722167	0.90482174	0.040816555	0.23965512	0.90813239	0.00012394075	0.3724623	1.3677	-0.2165007	0.35554861	1.363348	0.10899052	0.27869452	1.394744	-0.06359435	0.420678	1.0203065	-0.26581334	0.20099721	1.0585363	0.15840228	0.66278814	0.96410967	-0.25610331	0.23836121	0.83818225	0.25334634
290	1.156	0.10670529	0.016803352	-0.11615542	0.89799373	0.11730033	0.036251272	-0.0090143336	0.088599466	-0.13238773	0.76636128	0.073333045	0.073101824	0.016903952	0.10524141	-0.051508292	0.77200056	0.10848123	-0.0085398216	-0.075125648	0.08625931	-0.085213574	0.73399681	0.02878392	0.025139264	0.17717729	0.42775727	-0.17542039	0.61038648	0.44715786	0.10197095	0.19981405	0.39526822	-0.056951126	0.60750117	0.44710995	-0.02865234	0.29998661	0.80145162	-0.22789491	0.44560294	0.81268147	0.13860052	0.39217385	0.89658686	-0.1916175	0.47988114	0.90421202	0.039882238	0.2485414	0.90757899	0.0026083606	0.37838484	1.3673258	-0.21600995	0.36226903	1.3631972	0.10938077	0.28526076	1.3939811	-0.062995633	0.42783506	1.0202558	-0.26471771	0.20715059	1.0587063	0.15824877	0.67029235	0.96562854	-0.2550337	0.24321784	0.83872372	0.25450766
291	1.16	0.10704756	0.016881541	-0.11616996	0.9011786	0.11333524	0.036918091	-0.0072098378	0.090711671	-0.13280971	0.76924929	0.071389351	0.074515573	0.019079701	0.10704708	-0.051922681	0.77497898	0.10577752	-0.0073576083	-0.073243754	0.089439507	-0.085693515	0.73602643	0.026901353	0.027072461	0.18273835	0.42771553	-0.17539013	0.61927107	0.44747812	0.10222246	0.20559871	0.39461215	-0.057245151	0.61501034	0.44688166	-0.02810962	0.30589483	0.8012228	-0.22655945	0.4543033	0.81341678	0.13879503	0.39842191	0.89596658	-0.19168808	0.48762945	0.90378223	0.039008283	0.25785613	0.90715598	0.0052587108	0.38430625	1.3670302	-0.21548825	0.36907553	1.3630926	0.10979456	0.29183257	1.3932513	-0.062246505	0.43492386	1.0202737	-0.26360783	0.2134862	1.0588612	0.15804346	0.67768718	0.96705208	-0.25395543	0.24820978	0.83930976	0.25569009
292	1.164	0.10743245	0.016959238	-0.11616755	0.90397252	0.10931858	0.037568816	-0.005270016	0.0929167	-0.13325507	0.77171287	0.069413782	0.075905098	0.02132828	0.10889262	-0.052371346	0.77755208	0.10300868	-0.0062025416	-0.071196179	0.092747905	-0.086171582	0.73763487	0.025012578	0.028985943	0.18847872	0.42768368	-0.17534128	0.62811784	0.4477019	0.10243531	0.21145818	0.3940153	-0.057495766	0.62259131	0.4468041	-0.027534897	0.31205305	0.80098244	-0.22522356	0.46281414	0.81421738	0.13908212	0.40473849	0.89529483	-0.19169109	0.49543671	0.90353392	0.038222382	0.26714302	0.90679941	0.0077092799	0.39023422	1.3668086	-0.21493153	0.37596833	1.3630304	0.11023079	0.29840146	1.3926219	-0.06135763	0.44193197	1.020365	-0.26253104	0.2200104	1.0590259	0.15780159	0.6849669	0.96839306	-0.25287861	0.25334611	0.83994312	0.25689524
293	1.168	0.10787145	0.01703798	-0.11615607	0.90639688	0.1052802	0.03823135	-0.0031781965	0.095197557	-0.13370643	0.77380871	0.067412799	0.077254031	0.023647013	0.11076128	-0.052858562	0.7797386	0.10022447	-0.0050951112	-0.068984145	0.096177071	-0.086662069	0.73887801	0.023135169	0.03086294	0.194385	0.42766319	-0.17528886	0.63673696	0.44781223	0.10256613	0.21741174	0.39349855	-0.057707548	0.63037668	0.44690498	-0.02707414	0.31846989	0.80071533	-0.22391075	0.47115936	0.81505903	0.13947914	0.41107956	0.89456812	-0.19165618	0.50320852	0.90347365	0.037583456	0.27599731	0.90643843	0.0096065006	0.39618204	1.3666589	-0.21433337	0.38294247	1.3630089	0.11069657	0.30499878	1.3921141	-0.060416081	0.44883554	1.0205353	-0.26155492	0.22667819	1.0592234	0.15754615	0.69212646	0.96967911	-0.25180874	0.25865191	0.84063237	0.25814745
294	1.172	0.1083836	0.017121718	-0.11613289	0.90846876	0.10125148	0.038904084	-0.00091604615	0.097535277	-0.1341542	0.77559826	0.065360224	0.078537891	0.025994266	0.11261623	-0.053408383	0.78156454	0.097463759	-0.0040654869	-0.066614869	0.099714579	-0.08719208	0.73979114	0.021312328	0.032657836	0.20046507	0.42764928	-0.17525182	0.64505476	0.44781802	0.10260639	0.22347737	0.39307224	-0.05789537	0.63846866	0.44717231	-0.026823034	0.32511418	0.80040823	-0.22262984	0.47937305	0.81592235	0.13999323	0.41750858	0.8938043	-0.19160598	0.51078293	0.90361782	0.037181482	0.28438932	0.906041	0.010923371	0.40215862	1.3665756	-0.21369098	0.38999257	1.3630302	0.11119953	0.31166461	1.3916848	-0.059510955	0.45562088	1.0207789	-0.26071521	0.23344177	1.0594616	0.15729364	0.69916643	0.97090258	-0.25074389	0.26417047	0.84138978	0.25949515
295	1.176	0.10898199	0.017212767	-0.11608709	0.91021272	0.097259525	0.039551357	0.0015255109	0.099923448	-0.1345981	0.7771257	0.063209022	0.079712024	0.028345355	0.11442731	-0.05404422	0.78308733	0.094751972	-0.0031639146	-0.064078344	0.10335037	-0.087762723	0.74038299	0.019622953	0.034273999	0.20672997	0.42764577	-0.1752354	0.65311849	0.44774675	0.10258413	0.22966562	0.39273402	-0.058073867	0.64681969	0.44754645	-0.026744868	0.33192682	0.80005262	-0.22136599	0.48748002	0.81678926	0.14061296	0.42413505	0.89303448	-0.19154332	0.51804948	0.9039787	0.037084893	0.29251031	0.90564174	0.011848251	0.40816084	1.3665484	-0.21301038	0.39711875	1.3630928	0.11173962	0.31841533	1.3912689	-0.058669176	0.46229083	1.0210695	-0.25998446	0.24028612	1.0597306	0.15704919	0.70609369	0.97202847	-0.24968199	0.26992676	0.84221677	0.26097201
296	1.18	0.10965688	0.017307144	-0.11601248	0.9116753	0.093305111	0.04014839	0.0041402579	0.10237029	-0.13505263	0.77841321	0.060967925	0.080703729	0.030790869	0.11622389	-0.054753663	0.78442411	0.092144452	-0.0024454269	-0.061327979	0.10707974	-0.088320949	0.74068268	0.018165561	0.035579609	0.21316464	0.42767072	-0.17522656	0.6609985	0.44762213	0.10252902	0.23597887	0.39247257	-0.058248099	0.65528141	0.4479518	-0.026739001	0.33886528	0.79964445	-0.22009834	0.4954873	0.81763771	0.14130742	0.43101833	0.89228666	-0.19144822	0.52513007	0.90453534	0.037264393	0.30045113	0.90530925	0.012491001	0.4141791	1.366569	-0.21230105	0.40432364	1.3631885	0.11230839	0.32523736	1.3908315	-0.057859247	0.46886001	1.021381	-0.25929457	0.24721865	1.0600162	0.15681285	0.71292052	0.97303875	-0.24862597	0.27587056	0.84309134	0.26255066
297	1.184	0.11038385	0.017396778	-0.11591597	0.91296626	0.089323368	0.040720902	0.0069207613	0.10488264	-0.13553733	0.77949627	0.058813699	0.081419096	0.033509222	0.11808349	-0.055490547	0.7857535	0.089767176	-0.001949281	-0.05830588	0.11089684	-0.088800658	0.7408031	0.017067748	0.036447582	0.21974363	0.42773957	-0.17521858	0.66872476	0.44744822	0.1024651	0.24241885	0.39226973	-0.058422484	0.66371842	0.44832512	-0.026728481	0.34594642	0.79918404	-0.21883775	0.50339536	0.81844546	0.14204117	0.43817126	0.89156921	-0.19129236	0.53234189	0.90522197	0.037606101	0.30813154	0.90507298	0.012790298	0.42021144	1.3666343	-0.21156422	0.41160575	1.3633073	0.11289575	0.33208539	1.3903766	-0.057005956	0.47535812	1.0217124	-0.25856184	0.25425213	1.0603088	0.15658374	0.71966042	0.973938	-0.24757902	0.28187803	0.84397777	0.26414579
298	1.188	0.11114757	0.017476279	-0.11581353	0.91432551	0.085164602	0.041326872	0.0098755815	0.10745236	-0.1360571	0.78049529	0.057095568	0.081778003	0.036619139	0.12004926	-0.056219074	0.78734145	0.087792032	-0.0017077006	-0.054983766	0.11478866	-0.089186209	0.74096054	0.016521793	0.03679501	0.22647281	0.42784304	-0.17523261	0.67629271	0.44722452	0.10241956	0.24899587	0.39210083	-0.058613302	0.6720445	0.44862292	-0.02666668	0.35322619	0.79867568	-0.21762663	0.51121784	0.81920174	0.1427917	0.44560845	0.89086875	-0.19105471	0.53991504	0.90596313	0.038027721	0.31548737	0.90490981	0.012693075	0.4262683	1.3667459	-0.21079125	0.41895888	1.363442	0.11350022	0.33890376	1.3899256	-0.056035803	0.48181641	1.0220749	-0.25771897	0.26140218	1.0606006	0.15636131	0.72632011	0.9747333	-0.24654546	0.28784267	0.8448502	0.26567856
